<svg width="10" height="7" fill="none" xmlns="http://www.w3.org/2000/svg"><path d="M4.22 4.75c0 .184-.062.367-.123.55a1.33 1.33 0 01-.307.49 3.424 3.424 0 01-.491.367 2.22 2.22 0 01-.675.122c-.307 0-.552-.06-.798-.183-.245-.122-.49-.245-.675-.428C.967 5.484.906 5.3.783 5.056a3.014 3.014 0 01-.123-.795c0-.55.123-.978.307-1.467.184-.428.43-.856.798-1.162.122-.122.307-.306.49-.428.185-.122.369-.245.553-.306.184-.061.307-.183.43-.244.122-.062.184-.062.245-.123l.86 1.223c-.123.061-.308.123-.492.245-.184.061-.368.183-.552.306-.184.122-.307.305-.43.489a1.03 1.03 0 00-.184.611c.43 0 .737.123 1.044.367.368.184.49.55.49.979zm4.848 0c0 .184-.061.367-.123.55a1.33 1.33 0 01-.307.49c-.122.122-.307.245-.49.367-.185.061-.43.122-.676.122-.307 0-.552-.06-.798-.183-.245-.122-.49-.245-.675-.428-.122-.184-.245-.367-.368-.612-.061-.244-.123-.489-.123-.795 0-.55.123-.978.307-1.467.184-.428.43-.856.798-1.162.123-.122.307-.306.491-.428s.368-.245.552-.306c.184-.061.307-.183.43-.244.123-.062.184-.062.245-.123l.86 1.223c-.123.061-.307.123-.491.245-.184.061-.369.183-.553.306-.184.122-.307.305-.43.489a1.03 1.03 0 00-.183.611c.43 0 .736.123 1.043.367.307.184.49.55.49.979z" fill="#fff"/></svg>