<svg width="116" height="28" fill="none" xmlns="http://www.w3.org/2000/svg"><path d="M17.035 0h4.726l-.737 27.456h-8.899l-1.227-11.313L9.67 27.456H.71L.035 0H4.7l.369 22.747h.49L8.567 0h4.664l3.007 22.747h.491L17.035 0zM36.55 22.747v4.77H23.725V0h12.827v4.708h-8.163v6.605h6.506v4.708H28.39v6.665h8.162v.061zm13.134 0v4.77h-11.23V0h4.663v22.747h6.567zm9.942-5.381l4.726-1.1v8.316c0 1.59-1.35 2.874-2.885 2.874H54.41c-1.596 0-2.885-1.345-2.885-2.874V2.874A2.876 2.876 0 0154.41 0h7.058c1.534 0 2.884 1.284 2.884 2.874v5.565l-4.726 1.1V4.647h-3.375v18.04h3.375v-5.32zM77.117 0c1.534 0 2.884 1.284 2.884 2.874v21.647c0 1.59-1.35 2.874-2.884 2.874h-7.058c-1.595 0-2.884-1.345-2.884-2.874V2.874A2.876 2.876 0 0170.059 0h7.058zm-1.841 4.708H71.9v18.04h3.376V4.707zM95.344 0h4.665v27.456h-4.665V13.942l-1.902 6.971h-4.603l-1.841-6.971v13.514h-4.664V0h4.664l4.173 13.27L95.344 0zm19.823 22.747v4.77h-12.826V0h12.826v4.708h-8.162v6.605h6.505v4.708h-6.505v6.665h8.162v.061z" fill="#81B3D3"/></svg>