<svg width="282" height="49" fill="none" xmlns="http://www.w3.org/2000/svg"><path d="M27.187 13.372c-2.209-1.834-4.97-3.057-7.917-3.057-2.209 0-5.093 1.284-5.093 3.852 0 2.69 3.252 3.73 5.278 4.342l3.068.917c6.383 1.896 11.354 5.075 11.354 12.475 0 4.524-1.105 9.233-4.726 12.29-3.62 3.058-8.408 4.28-13.01 4.28-5.77 0-11.477-1.956-16.141-5.197l4.971-9.478c3.007 2.63 6.505 4.709 10.617 4.709 2.823 0 5.77-1.407 5.77-4.587 0-3.363-4.665-4.463-7.243-5.197-7.487-2.202-12.397-4.097-12.397-12.964C1.718 6.462 8.346.41 17.552.41c4.603 0 10.31 1.467 14.361 3.79l-4.726 9.173zm29.029-1.712v7.644h13.44v10.09h-13.44v7.888h14.238v10.09H44.31V1.631h26.144v10.09l-14.238-.062zM79.291 1.632H96.23c12.765 0 23.321 10.028 23.321 22.87 0 12.84-10.617 22.87-23.321 22.87H79.29V1.631zm11.968 35.65h2.7c7.119 0 13.195-3.914 13.195-12.78 0-8.194-5.401-12.78-13.072-12.78h-2.823v25.56zm84.692-13.637c0 14.798-10.679 25.255-25.408 25.255-14.729 0-25.407-10.457-25.407-25.255 0-13.82 12.212-23.542 25.407-23.542s25.408 9.723 25.408 23.542zm-38.418.061c0 7.889 5.83 13.637 12.949 13.637s12.949-5.748 12.949-13.637c0-6.298-5.83-12.107-12.949-12.107-7.058 0-12.949 5.809-12.949 12.107zm44.739-22.074h11.967l21.848 28.006h.123V1.632h11.968v45.74H216.21l-21.848-28.068h-.123V47.37h-11.967V1.631zm67.57 37.79l-3.192 7.95h-12.642l17.675-45.74h13.01L282 47.372h-12.704l-3.007-7.95h-16.447zm8.346-23.665h-.123l-4.909 14.554h9.942l-4.91-14.554z" fill="#fff"/></svg>